<?xml version="1.0" encoding="utf-8"?>
<!-- Generator: Adobe Illustrator 26.4.1, SVG Export Plug-In . SVG Version: 6.00 Build 0)  -->
<svg version="1.1" id="Layer_1" xmlns="http://www.w3.org/2000/svg" xmlns:xlink="http://www.w3.org/1999/xlink" x="0px" y="0px"
	 viewBox="0 0 274.2 78" style="enable-background:new 0 0 274.2 78;" xml:space="preserve">
<style type="text/css">
	.st0{fill:#808080;}
	.st1{fill:#007481;}
</style>
<g>
	<path class="st0" d="M95.3,26.8c0.4,0,0.8-0.2,1.1-0.5c0.3-0.3,0.5-0.7,0.5-1.2V24c0-0.8-0.2-1.3-0.6-1.5s-1-0.4-2-0.4
		c-0.5,0-1,0.1-1.6,0.2v4.5C92.7,26.8,95.3,26.8,95.3,26.8z M90.8,21.3c0.4-0.3,1-0.4,1.6-0.6c0.6-0.1,1.2-0.2,1.9-0.2
		c2.9,0,4.3,1.1,4.4,3.4V25c0,0.9-0.3,1.7-1,2.3c-0.7,0.6-1.4,1-2.3,0.9h-2.7v4.4h-1.8L90.8,21.3L90.8,21.3z"/>
	<path class="st0" d="M104.3,24.6c1,0,1.7,0.2,2.2,0.5l-1.1,1.4c-0.4-0.1-0.9-0.2-1.6-0.2c-0.5,0-0.9,0.1-1.2,0.2v6.3h-1.8V25
		c0-0.3,0.1-0.5,0.4-0.7l1.4-0.5v0.9C103.2,24.7,103.8,24.6,104.3,24.6"/>
	<path class="st0" d="M140.5,46c1,0,1.7,0.2,2.2,0.5l-1.1,1.4c-0.4-0.1-0.9-0.2-1.6-0.2c-0.5,0-0.9,0.1-1.2,0.2v6.3H137v-7.7
		c0-0.3,0.1-0.5,0.4-0.7l1.4-0.5v0.9C139.3,46,139.9,46,140.5,46"/>
	<path class="st0" d="M107.3,24.9c0-0.2,0-0.3,0.1-0.4s0.2-0.2,0.4-0.2l1.3-0.4v8.9h-1.8V24.9z M107.3,23v-1.6
		c0-0.1,0.1-0.1,0.2-0.1h1.6c0.1,0,0.1,0,0.1,0.1V23c0,0.1,0,0.1-0.1,0.1h-1.6C107.3,23.1,107.3,23.1,107.3,23"/>
	<path class="st0" d="M110.8,25c0-0.2,0.1-0.3,0.2-0.4s0.4-0.3,0.7-0.4l0.9-0.4v1.1c0.6-0.5,1.3-0.7,2-0.7c1,0,1.9,0.3,2.7,0.9
		c0.7,0.6,1.1,1.4,1.1,2.4v5.3h-1.8v-5.3c0-0.5-0.2-0.9-0.6-1.1c-0.4-0.3-0.8-0.4-1.4-0.4c-0.5,0-1,0.1-1.4,0.4s-0.6,0.6-0.6,1.1
		v5.3h-1.8L110.8,25z"/>
	<path class="st0" d="M122,26.2c-0.5,0.5-0.7,1.2-0.7,2.1s0.2,1.6,0.7,2.1s1.1,0.8,1.9,0.8c1.1,0,1.8-0.2,2.1-0.6l0.8,1.4
		c-0.7,0.5-1.6,0.8-2.9,0.8s-2.4-0.4-3.2-1.2c-0.8-0.8-1.2-1.9-1.2-3.2c0-1.3,0.4-2.4,1.2-3.2c0.8-0.8,1.9-1.2,3.2-1.2
		c1.3,0,2.2,0.3,2.9,0.8l-0.7,1.5c-0.2-0.2-0.4-0.4-0.8-0.5s-0.8-0.2-1.3-0.2C123.1,25.4,122.5,25.7,122,26.2"/>
	<path class="st0" d="M129.9,26.1c-0.4,0.3-0.7,0.8-0.8,1.4l4.7-0.5c-0.2-0.9-0.9-1.4-2.2-1.4C130.9,25.6,130.3,25.7,129.9,26.1
		 M135.5,31.9c-0.4,0.3-0.9,0.5-1.5,0.6c-0.6,0.2-1.2,0.2-1.9,0.2c-1.5,0-2.6-0.4-3.5-1.2c-0.8-0.8-1.3-1.9-1.3-3.3s0.4-2.4,1.2-3.2
		c0.8-0.8,1.8-1.2,3.1-1.2c1.4,0,2.4,0.4,3.1,1.2c0.7,0.8,1,1.9,0.9,3.3l-6.5,0.7c0.3,1.4,1.3,2.1,3,2.1c1.2,0,2.1-0.2,2.6-0.6
		L135.5,31.9z"/>
	<path class="st0" d="M137.9,30.5c0.6,0.5,1.4,0.8,2.4,0.8c0.5,0,0.9-0.1,1.3-0.3c0.4-0.2,0.5-0.4,0.5-0.7c0-0.3-0.1-0.5-0.4-0.7
		c-0.3-0.2-0.8-0.3-1.5-0.5c-0.9-0.2-1.6-0.5-2.1-0.9s-0.8-0.9-0.8-1.7c0-0.8,0.3-1.4,1-1.8s1.5-0.7,2.4-0.7c1.1,0,2.2,0.3,3.1,0.9
		l-0.8,1.4c-0.6-0.5-1.3-0.7-2.2-0.7c-0.5,0-0.9,0.1-1.2,0.3c-0.3,0.2-0.5,0.4-0.5,0.7c0,0.3,0.1,0.5,0.4,0.6
		c0.2,0.1,0.7,0.3,1.5,0.5c0.9,0.3,1.7,0.6,2.2,0.9c0.5,0.4,0.8,1,0.8,1.8s-0.3,1.4-1,1.9s-1.5,0.7-2.6,0.7c-1.2,0-2.3-0.3-3.3-0.9
		L137.9,30.5z"/>
	<path class="st0" d="M145.7,30.5c0.6,0.5,1.4,0.8,2.4,0.8c0.5,0,0.9-0.1,1.3-0.3c0.4-0.2,0.5-0.4,0.5-0.7c0-0.3-0.1-0.5-0.4-0.7
		c-0.3-0.2-0.8-0.3-1.5-0.5c-0.9-0.2-1.6-0.5-2.1-0.9s-0.8-0.9-0.8-1.7c0-0.8,0.3-1.4,1-1.8s1.5-0.7,2.4-0.7c1.1,0,2.2,0.3,3.1,0.9
		l-0.8,1.4c-0.6-0.5-1.3-0.7-2.2-0.7c-0.5,0-0.9,0.1-1.2,0.3c-0.3,0.2-0.5,0.4-0.5,0.7c0,0.3,0.1,0.5,0.4,0.6
		c0.2,0.1,0.7,0.3,1.5,0.5c0.9,0.3,1.7,0.6,2.2,0.9c0.5,0.4,0.8,1,0.8,1.8s-0.3,1.4-1,1.9s-1.5,0.7-2.6,0.7c-1.2,0-2.3-0.3-3.3-0.9
		L145.7,30.5z"/>
	<polygon class="st0" points="167.4,20.8 167.4,32.8 165.7,32.8 159.1,23.4 159.2,32.8 157.4,32.8 157.4,20.8 159.3,20.8 165.8,30 
		165.7,20.8 	"/>
	<path class="st0" d="M176.3,28.4c0-1.9-0.8-2.8-2.5-2.8c-1.6,0-2.4,0.9-2.4,2.8s0.8,2.8,2.4,2.8C175.4,31.2,176.3,30.3,176.3,28.4
		 M176.9,25.3c0.8,0.8,1.1,1.8,1.1,3.2c0,1.4-0.4,2.4-1.1,3.2c-0.8,0.8-1.8,1.2-3.1,1.2s-2.4-0.4-3.1-1.2c-0.7-0.8-1.1-1.8-1.1-3.2
		c0-1.4,0.4-2.4,1.1-3.2c0.7-0.8,1.8-1.2,3.1-1.2C175.1,24.1,176.2,24.5,176.9,25.3"/>
	<path class="st0" d="M184.9,32.3c-0.6,0.3-1.3,0.5-2,0.5c-1,0-1.9-0.3-2.7-0.9s-1.2-1.4-1.2-2.3v-4.3c0-0.3,0.1-0.5,0.4-0.6
		l1.4-0.6v5.6c0,0.4,0.2,0.8,0.6,1.1c0.4,0.3,0.9,0.4,1.4,0.4s1-0.1,1.4-0.4s0.6-0.6,0.6-1.1v-4.3c0-0.3,0.1-0.5,0.4-0.6l1.4-0.6
		v8.7h-1.8v-0.6H184.9z"/>
	<path class="st0" d="M201.1,28.7c-0.9-0.1-1.5-0.2-2-0.2c-1.4,0-2.2,0.4-2.2,1.3c0,0.4,0.2,0.8,0.5,1c0.4,0.2,0.8,0.3,1.4,0.3
		c0.8,0,1.6-0.2,2.3-0.7V28.7z M201.1,32.2c-0.8,0.4-1.7,0.5-2.5,0.5c-1,0-1.8-0.3-2.5-0.8c-0.6-0.5-1-1.3-1-2.2c0-1,0.3-1.7,1-2.1
		c0.7-0.5,1.7-0.7,3-0.7c0.3,0,1,0.1,1.9,0.2v-0.3c0-0.4-0.2-0.7-0.6-1c-0.4-0.2-1-0.3-1.7-0.3c-0.8,0-1.8,0.2-3,0.5v-1.6
		c1-0.3,2-0.5,3.1-0.5c0.7,0,1.3,0.1,1.9,0.3c0.6,0.2,1,0.4,1.3,0.8c0.5,0.4,0.7,1.1,0.7,1.9v5.8h-1.6L201.1,32.2z"/>
	<path class="st0" d="M210.9,24.9c0.7,0.6,1,1.3,1,2.2v5.6h-1.8v-5.6c0-0.4-0.2-0.7-0.5-1s-0.7-0.4-1.1-0.4h-0.8
		c-0.4,0-0.8,0.1-1.1,0.4s-0.5,0.6-0.5,1v5.6h-1.8v-11c0-0.3,0.1-0.6,0.4-0.7l1.4-0.5v3.9c0.6-0.3,1.1-0.4,1.6-0.4h0.8
		C209.4,24,210.2,24.3,210.9,24.9"/>
	<path class="st0" d="M227,24.9c0-0.2,0-0.3,0.1-0.4s0.2-0.2,0.4-0.2l1.3-0.4v8.9H227V24.9z M227,23v-1.6c0-0.1,0.1-0.1,0.2-0.1h1.6
		c0.1,0,0.1,0,0.1,0.1V23c0,0.1,0,0.1-0.1,0.1h-1.6C227,23.1,227,23.1,227,23"/>
	<path class="st0" d="M241.4,26.5v3.8c0,0.3,0.1,0.5,0.3,0.7s0.5,0.3,0.8,0.3h0.3l0.3,1.5c-0.3,0.1-0.5,0.1-0.7,0.1
		c-0.8,0-1.5-0.2-2-0.7s-0.8-1.1-0.8-1.9v-7.5c0-0.2,0.1-0.4,0.3-0.6l1.5-0.7V25h2.1v1.5H241.4z"/>
	<path class="st0" d="M98.2,48.7l-1.6-4.2L95,48.7H98.2z M102.4,54.2h-2.1l-1.5-3.8h-4.5l-1.5,3.8h-2L95.9,42h1.4L102.4,54.2z"/>
	<path class="st0" d="M108,52.6c0.4,0,0.8-0.2,1.1-0.5c0.3-0.3,0.5-0.7,0.5-1.2v-2.2c0-0.5-0.2-0.8-0.5-1.2
		c-0.3-0.3-0.6-0.5-1.1-0.5h-2.4v5.4h2.4V52.6z M103.8,54.1V43.2c0-0.4,0.2-0.6,0.5-0.7l1.3-0.5v3.4h2.5c0.9,0,1.7,0.4,2.3,1
		c0.6,0.6,1,1.4,1,2.3v2.2c0,0.9-0.3,1.7-1,2.3s-1.4,0.9-2.4,0.9L103.8,54.1z"/>
	<path class="st0" d="M119.3,52.6v-5.4h-2.4c-0.4,0-0.8,0.2-1.1,0.5c-0.3,0.3-0.5,0.7-0.5,1.2v2.2c0,0.4,0.2,0.8,0.5,1.2
		c0.3,0.3,0.7,0.5,1.1,0.5h2.4V52.6z M121.1,42v12.1h-4.2c-0.9,0-1.7-0.3-2.4-0.9c-0.7-0.6-1-1.4-1-2.3v-2.2c0-0.9,0.3-1.7,1-2.3
		c0.6-0.6,1.4-1,2.3-1h2.5v-2.2c0-0.4,0.2-0.6,0.5-0.7L121.1,42z"/>
	<path class="st0" d="M129,53.7c-0.6,0.3-1.3,0.5-2,0.5c-1,0-1.9-0.3-2.7-0.9c-0.8-0.6-1.2-1.4-1.2-2.3v-4.3c0-0.3,0.1-0.5,0.4-0.6
		l1.4-0.6V51c0,0.4,0.2,0.8,0.6,1.1s0.9,0.4,1.4,0.4s1-0.1,1.4-0.4c0.4-0.3,0.6-0.6,0.6-1.1v-4.3c0-0.3,0.1-0.5,0.4-0.6l1.4-0.6v8.7
		H129V53.7z"/>
	<path class="st0" d="M134.8,42v12.2H133v-11c0-0.1,0-0.3,0.1-0.4s0.2-0.2,0.3-0.3L134.8,42z"/>
	<path class="st0" d="M149.2,50.1c-0.9-0.1-1.5-0.2-2-0.2c-1.4,0-2.2,0.4-2.2,1.3c0,0.4,0.2,0.8,0.5,1c0.4,0.2,0.8,0.3,1.4,0.3
		c0.8,0,1.6-0.2,2.3-0.7V50.1z M149.2,53.6c-0.8,0.4-1.7,0.5-2.5,0.5c-1,0-1.8-0.3-2.5-0.8c-0.6-0.5-1-1.3-1-2.2c0-1,0.3-1.7,1-2.1
		c0.7-0.5,1.7-0.7,3-0.7c0.3,0,1,0.1,1.9,0.2v-0.3c0-0.4-0.2-0.7-0.6-1c-0.4-0.2-1-0.3-1.7-0.3c-0.8,0-1.8,0.2-3,0.5v-1.6
		c1-0.3,2-0.5,3.1-0.5c0.7,0,1.3,0.1,1.9,0.3c0.6,0.2,1,0.4,1.3,0.8c0.5,0.4,0.7,1.1,0.7,1.9v5.8h-1.6L149.2,53.6z"/>
	<path class="st0" d="M159,46.4c0.7,0.6,1,1.3,1,2.2v5.6h-1.8v-5.6c0-0.4-0.2-0.7-0.5-1s-0.7-0.4-1.1-0.4h-0.8
		c-0.4,0-0.8,0.1-1.1,0.4c-0.3,0.3-0.5,0.6-0.5,1v5.6h-1.8v-11c0-0.3,0.1-0.6,0.4-0.7l1.4-0.5v3.9c0.6-0.3,1.1-0.4,1.6-0.4h0.8
		C157.5,45.5,158.3,45.8,159,46.4"/>
	<path class="st0" d="M174.8,54.2H173v-5.5c0-0.5-0.2-0.8-0.6-1.1c-0.4-0.3-0.8-0.4-1.4-0.4c-0.5,0-1,0.1-1.5,0.4
		c-0.4,0.3-0.6,0.6-0.6,1.1v5.5h-1.8v-5.5c0-0.5-0.2-0.8-0.6-1.1c-0.4-0.3-0.9-0.4-1.4-0.4s-1,0.1-1.4,0.3s-0.6,0.6-0.6,1v5.7h-1.8
		v-7.8c0-0.3,0.1-0.6,0.4-0.7l1.4-0.5v0.7c0.5-0.3,1.1-0.4,1.9-0.4c0.6,0,1.2,0.1,1.7,0.3s1,0.4,1.3,0.8c0.8-0.7,1.7-1.1,2.9-1.1
		c1,0,1.9,0.3,2.7,0.9c0.8,0.6,1.2,1.3,1.2,2.3L174.8,54.2L174.8,54.2z"/>
	<path class="st0" d="M181.7,50.1c-0.9-0.1-1.5-0.2-2-0.2c-1.4,0-2.2,0.4-2.2,1.3c0,0.4,0.2,0.8,0.5,1c0.4,0.2,0.8,0.3,1.4,0.3
		c0.8,0,1.6-0.2,2.3-0.7V50.1z M181.8,53.6c-0.8,0.4-1.7,0.5-2.5,0.5c-1,0-1.8-0.3-2.5-0.8c-0.6-0.5-1-1.3-1-2.2c0-1,0.3-1.7,1-2.1
		c0.7-0.5,1.7-0.7,3-0.7c0.3,0,1,0.1,1.9,0.2v-0.3c0-0.4-0.2-0.7-0.6-1c-0.4-0.2-1-0.3-1.7-0.3c-0.8,0-1.8,0.2-3,0.5v-1.6
		c1-0.3,2-0.5,3.1-0.5c0.7,0,1.3,0.1,1.9,0.3c0.6,0.2,1,0.4,1.3,0.8c0.5,0.4,0.7,1.1,0.7,1.9v5.8h-1.6L181.8,53.6z"/>
	<path class="st0" d="M184.8,46.5c0-0.2,0.1-0.3,0.2-0.4c0.1-0.1,0.4-0.3,0.7-0.4l0.9-0.4v0.8c0.6-0.3,1.3-0.5,2-0.5
		c1,0,1.9,0.3,2.7,0.9c0.7,0.6,1.1,1.4,1.1,2.4v5.3h-1.8v-5.3c0-0.5-0.2-0.9-0.6-1.1c-0.4-0.3-0.8-0.4-1.4-0.4c-0.5,0-1,0.1-1.4,0.4
		c-0.4,0.3-0.6,0.6-0.6,1.1v5.3h-1.8L184.8,46.5z"/>
	<path class="st0" d="M205.1,42h1.8v8c0,1.3-0.4,2.4-1.1,3.1c-0.8,0.7-1.8,1.1-3.2,1.1s-2.5-0.4-3.2-1.1c-0.8-0.7-1.2-1.8-1.2-3.1
		v-8h1.9v8c0,0.8,0.2,1.5,0.6,1.9c0.4,0.4,1.1,0.7,1.9,0.7c0.8,0,1.5-0.2,1.9-0.7c0.4-0.4,0.6-1.1,0.6-1.9V42z"/>
	<path class="st0" d="M219,46.4c0-0.2,0-0.3,0.1-0.4c0.1-0.1,0.2-0.2,0.4-0.2l1.3-0.4v8.9H219V46.4z M219,44.5v-1.6
		c0-0.1,0.1-0.1,0.2-0.1h1.6c0.1,0,0.1,0,0.1,0.1v1.6c0,0.1,0,0.1-0.1,0.1h-1.6C219.1,44.5,219,44.5,219,44.5"/>
	<polygon class="st0" points="230.6,45.5 227.2,54.1 225.8,54.1 222.2,45.5 224.2,45.5 226.5,51.5 228.7,45.5 	"/>
	<path class="st0" d="M233.7,47.5c-0.4,0.3-0.7,0.8-0.8,1.4l4.7-0.5c-0.2-0.9-0.9-1.4-2.2-1.4C234.7,47,234.2,47.1,233.7,47.5
		 M239.3,53.3c-0.4,0.3-0.9,0.5-1.5,0.6c-0.6,0.2-1.2,0.2-1.9,0.2c-1.5,0-2.6-0.4-3.5-1.2c-0.8-0.8-1.3-1.9-1.3-3.3
		c0-1.4,0.4-2.4,1.2-3.2s1.8-1.2,3.1-1.2c1.4,0,2.4,0.4,3.1,1.2c0.7,0.8,1,1.9,0.9,3.3l-6.5,0.7c0.3,1.4,1.3,2.1,3,2.1
		c1.2,0,2.1-0.2,2.6-0.6L239.3,53.3z"/>
	<path class="st0" d="M249.2,51.9c0.6,0.5,1.4,0.8,2.4,0.8c0.5,0,0.9-0.1,1.3-0.3c0.4-0.2,0.5-0.4,0.5-0.7s-0.1-0.5-0.4-0.7
		c-0.3-0.2-0.8-0.3-1.5-0.5c-0.9-0.2-1.6-0.5-2.1-0.9s-0.8-0.9-0.8-1.7s0.3-1.4,1-1.8c0.7-0.4,1.5-0.7,2.4-0.7
		c1.1,0,2.2,0.3,3.1,0.9l-0.8,1.4c-0.6-0.5-1.3-0.7-2.2-0.7c-0.5,0-0.9,0.1-1.2,0.3s-0.5,0.4-0.5,0.7s0.1,0.5,0.4,0.6
		c0.2,0.1,0.7,0.3,1.5,0.5c0.9,0.3,1.7,0.6,2.2,0.9c0.5,0.4,0.8,1,0.8,1.8s-0.3,1.4-1,1.9s-1.5,0.7-2.6,0.7c-1.2,0-2.3-0.3-3.3-0.9
		L249.2,51.9z"/>
	<path class="st0" d="M256.8,46.4c0-0.2,0-0.3,0.1-0.4c0.1-0.1,0.2-0.2,0.4-0.2l1.3-0.4v8.9h-1.8V46.4z M256.8,44.5v-1.6
		c0-0.1,0.1-0.1,0.2-0.1h1.6c0.1,0,0.1,0,0.1,0.1v1.6c0,0.1,0,0.1-0.1,0.1H257C256.8,44.5,256.8,44.5,256.8,44.5"/>
	<path class="st0" d="M262.5,47.9v3.8c0,0.3,0.1,0.5,0.3,0.7c0.2,0.2,0.5,0.3,0.8,0.3h0.3l0.3,1.5c-0.3,0.1-0.5,0.1-0.7,0.1
		c-0.8,0-1.5-0.2-2-0.7s-0.8-1.1-0.8-1.9v-7.5c0-0.2,0.1-0.4,0.3-0.6l1.5-0.7v3.6h2.1V48L262.5,47.9L262.5,47.9z"/>
	<polygon class="st0" points="274.2,45.5 269.1,57.4 267.4,57.4 269,53.7 265.6,45.8 267.4,45.8 269.9,51.7 272.4,45.5 	"/>
	<path class="st0" d="M192.4,24.6c1,0,1.7,0.2,2.2,0.5l-1.1,1.4c-0.4-0.1-0.9-0.2-1.6-0.2c-0.5,0-0.9,0.1-1.2,0.2v6.3h-1.8V25
		c0-0.3,0.1-0.5,0.4-0.7l1.4-0.5v0.9C191.2,24.7,191.8,24.6,192.4,24.6"/>
	<path class="st0" d="M244.8,46c1,0,1.7,0.2,2.2,0.5l-1.1,1.4c-0.4-0.1-0.9-0.2-1.6-0.2c-0.5,0-0.9,0.1-1.2,0.2v6.3h-1.8v-7.7
		c0-0.3,0.1-0.5,0.4-0.7l1.4-0.5v0.9C243.7,46,244.3,46,244.8,46"/>
	<path class="st0" d="M230.6,25c0-0.2,0.1-0.3,0.2-0.4c0.1-0.1,0.4-0.3,0.7-0.4l0.9-0.4v1.1c0.6-0.5,1.3-0.7,2-0.7
		c1,0,1.9,0.3,2.7,0.9c0.7,0.6,1.1,1.4,1.1,2.4v5.3h-1.8v-5.3c0-0.5-0.2-0.9-0.6-1.1c-0.4-0.3-0.8-0.4-1.4-0.4c-0.5,0-1,0.1-1.4,0.4
		s-0.6,0.6-0.6,1.1v5.3h-1.8L230.6,25z"/>
	<path class="st0" d="M209,46.4c0-0.2,0.1-0.3,0.2-0.4c0.1-0.1,0.4-0.3,0.7-0.4l0.9-0.4v1.1c0.6-0.5,1.3-0.7,2-0.7
		c1,0,1.9,0.3,2.7,0.9c0.7,0.6,1.1,1.4,1.1,2.4v5.3h-1.8v-5.3c0-0.5-0.2-0.9-0.6-1.1c-0.4-0.3-0.8-0.4-1.4-0.4c-0.5,0-1,0.1-1.4,0.4
		c-0.4,0.3-0.6,0.6-0.6,1.1v5.3H209L209,46.4z"/>
	<path class="st0" d="M221.7,31.3c0.4,0,0.8-0.2,1.1-0.5s0.5-0.7,0.5-1.2v-2.2c0-0.5-0.2-0.8-0.5-1.2c-0.3-0.3-0.6-0.5-1.1-0.5h-2.4
		v5.4h2.4V31.3z M217.6,32.8V21.9c0-0.4,0.2-0.6,0.5-0.7l1.3-0.5v3.4h2.5c0.9,0,1.7,0.4,2.3,1s1,1.4,1,2.3v2.2c0,0.9-0.3,1.7-1,2.3
		s-1.4,0.9-2.4,0.9H217.6z"/>
	<path class="st1" d="M73.9,39.5c-0.1,7.6-2.8,14.5-7.1,20.1c0-2.8,0-6.5,0-6.7C67,40,62.8,28,55.6,18.6c2.3-1.8,4.7-3.4,7.2-4.8
		c0,0,0.1,0,0.1-0.1c6.7,6.2,10.9,15.1,10.9,24.9v0.1C73.9,39.1,73.9,39.3,73.9,39.5 M64.9,52.9c0,0.1,0,0.6,0,1.4h-6.3v-9.7
		c0-7.6-5.8-13.9-13.3-15.1c1.7-2.4,3.6-4.7,5.7-6.9c1-1,2-2,3.1-2.9C61.4,29.2,65.2,40.8,64.9,52.9 M64.9,61.8
		c-1.3,1.4-2.6,2.6-4.1,3.8v-5.2h-8.5V46c0-5.7-4.7-10.3-10.4-10.3h-6.1c-5.8,0-10.4,4.6-10.4,10.3v14.4H17v5
		c-1.4-1.2-2.8-2.4-4-3.8c0-1.3,0-3.2,0-5.1h8.4l-0.1-11.8c0-7.2,6.2-13.1,13.8-13.1h7.4c7.6,0,13.8,5.9,13.8,13.1v11.7h8.5
		C64.9,58.4,64.9,60.7,64.9,61.8 M50.3,64.5c-0.1,0.3-0.2,0.7-0.4,1.1c-0.1,0.4-0.3,0.9-0.4,1.4c-0.1,0.5-0.3,1-0.5,1.5h-0.8
		c-0.2-0.5-0.3-0.9-0.4-1.3c-0.1-0.4-0.3-0.8-0.4-1.2c-0.1-0.4-0.3-0.8-0.5-1.1c-0.2-0.4-0.3-0.7-0.5-1.1l0.9-0.3
		c0.1,0.2,0.2,0.5,0.3,0.8s0.2,0.6,0.4,1c0.1,0.3,0.2,0.7,0.3,1s0.2,0.7,0.3,1c0.1-0.6,0.3-1.3,0.5-1.9s0.3-1.2,0.5-1.8l0.9,0.3
		C50.5,63.9,50.4,64.2,50.3,64.5 M45.6,64.4c-0.2,0-0.4,0-0.5,0c-0.2,0-0.4,0-0.5,0c-0.4,0-0.7,0-1,0.1c0.1,0.2,0.1,0.5,0.2,0.8
		c0,0.3,0.1,0.5,0.1,0.8s0.1,0.5,0.1,0.8s0,0.5,0,0.8s0,0.7-0.1,0.9h-0.8c0-0.8-0.1-1.6-0.2-2.4c-0.1-0.8-0.3-1.6-0.5-2.3l0.6-0.3
		c0.2,0,0.5-0.1,0.7-0.1s0.5,0,0.7,0s0.4,0,0.7,0c0.2,0,0.4,0,0.6,0.1L45.6,64.4z M40.9,68.5c-0.2,0-0.4,0.1-0.6,0.1
		c-0.2,0-0.4,0-0.6,0c-0.6,0-1.1-0.1-1.4-0.3c-0.3-0.2-0.5-0.5-0.5-0.9c0-0.3,0.1-0.5,0.2-0.7c0.1-0.2,0.3-0.4,0.6-0.6
		c-0.3-0.1-0.5-0.2-0.6-0.3c-0.2-0.2-0.2-0.4-0.2-0.6s0.1-0.4,0.2-0.6c0.1-0.2,0.3-0.4,0.6-0.5c0.2-0.2,0.5-0.3,0.8-0.4
		c0.3-0.1,0.7-0.2,1-0.2l-0.2,0.9c-0.2,0-0.4,0.1-0.6,0.1c-0.2,0.1-0.4,0.1-0.5,0.2s-0.3,0.2-0.3,0.2c-0.1,0.1-0.1,0.2-0.1,0.3
		c0,0.1,0.1,0.2,0.3,0.3c0.2,0.1,0.5,0.1,0.8,0.1c0.1,0,0.2,0,0.3,0s0.1,0,0.2,0l-0.1,0.8c-0.5,0.1-0.8,0.2-1.1,0.3
		c-0.2,0.1-0.4,0.3-0.4,0.5s0.1,0.3,0.3,0.4s0.5,0.1,0.9,0.1c0.2,0,0.4,0,0.6,0c0.2,0,0.4,0,0.6-0.1L40.9,68.5z M43.4,44.1
		c1.5-1,1.7-1.2,1.6-0.5v0.3c0,0.2-0.1,0.4-0.3,0.5c-0.2,0.2-0.6,0.5-0.8,1.1C43.5,46.4,41.9,45.1,43.4,44.1 M37.8,54.2
		c0,0,0.1,0,0.2-0.1l3.5-0.4c1.5-0.2,2-2.1,1.3-2.7c-0.7-0.5-1.3-0.7-1.4-1.8c0-0.5,0.7-2.5,2.6-1.6c1,0.5,2.1,0.4,2.1,0.4v-0.4
		l-0.2-1.7c-1.2,0.2-0.9-0.6-0.7-1c0.1-0.4,0.6-0.3,1.6-0.7c0.9-0.4,1.3-0.6,1.5-0.6l0,0l0.2,1.8c0,0.1-0.1,0.3-0.2,0.3
		c-0.2,0-0.4,0.1-0.5,0.1c-0.3,0.1-0.2,0.2-0.2,0.5c0,0.6,0,1.1-0.1,1.7c-0.1,0.3-0.1,0.6-0.3,0.8c-0.4,0.5-1.1,0.6-1.5,1
		c-0.5,0.4-0.9,0.9-1.3,1.4c-0.3,0.3-0.5,1.3-0.6,1.8c-0.4,1.7-4,3-5.8,3C35.5,56,37.4,54.5,37.8,54.2 M33.9,49.4
		c0.3-0.2,0.3-0.7,0.3-1.1c0-0.7-0.4-1.4,0.3-1.9c0.4-0.4,1.4-0.7,1.9-0.4c1.3,0.8-0.6,2.7-1.2,3.4c-0.7,0.8-1.5,1.5-2.5,2
		c-0.5,0.3-2,1.3-2.6,0.8C30,52.1,30,52,30,51.9c-0.5-2,0.4-3.6,1.5-5.1c0.7-0.9,1.5-1.8,2.3-2.5c0.1-0.1,0.5-0.6,0.7-0.6
		c0,0,0,0.1-0.1,0.1c0,0.1-0.1,0.1-0.1,0.1c-0.3,0.6-2.8,4.9-2.9,5.6C31.4,50.3,33.4,49.8,33.9,49.4 M35.7,52.9
		c-0.9,1-2.9,2.9-3.5,3.6c-0.6,0.7-3,0.6-3,0.6s2-1.6,3.1-2.4c1.1-0.8,3.1-3.2,3.9-4c0.8-0.9,2.2-2.5,2.6-3c0.4-0.5,1.6-1.8,1.6-1.8
		s0.7,1.3-1.1,3.4C38.5,50.2,36.6,51.9,35.7,52.9 M35.4,68.5h-0.8c0-0.4,0-0.8-0.1-1.2c0-0.4-0.1-0.8-0.2-1.2
		c-0.1-0.4-0.1-0.8-0.2-1.2c-0.1-0.4-0.2-0.8-0.3-1.1l0.9-0.3c0.1,0.3,0.2,0.6,0.3,0.9c0.1,0.3,0.1,0.7,0.2,1.1
		c0.1,0.4,0.1,0.7,0.1,1.1s0,0.7,0,1.1C35.5,67.9,35.5,68.2,35.4,68.5 M32,67.7c-0.1,0.2-0.2,0.3-0.3,0.5c-0.1,0.1-0.3,0.2-0.5,0.3
		c-0.2,0.1-0.4,0.1-0.6,0.1s-0.5,0-0.7-0.1s-0.4-0.1-0.6-0.2c-0.3,0.1-0.5,0.2-0.8,0.2c-0.3,0.1-0.6,0.1-0.8,0.1H27l-0.1-0.1v-0.8
		l0.1-0.1h1c0.1,0,0.2,0,0.3,0c-0.1-0.1-0.2-0.3-0.2-0.4S28,66.9,28,66.7s0-0.4,0.1-0.5c0.1-0.2,0.1-0.3,0.3-0.4
		c0.1-0.1,0.2-0.2,0.4-0.3c0.2-0.1,0.3-0.1,0.5-0.1s0.3,0,0.5,0.1s0.3,0.2,0.4,0.3c0.1,0.1,0.2,0.3,0.3,0.4c0.1,0.2,0.1,0.4,0.1,0.5
		c0,0.2,0,0.3-0.1,0.5c0,0.1-0.1,0.3-0.2,0.4h0.1h0.1c0.2,0,0.3,0,0.4,0s0.2-0.1,0.3-0.1c0.1,0,0.1-0.1,0.1-0.1v-0.1
		c0-0.2,0-0.4-0.1-0.6S31,66.3,30.8,66c-0.2-0.2-0.4-0.4-0.6-0.6c-0.3-0.2-0.6-0.4-1-0.5l0.4-0.8c0.4,0.2,0.8,0.3,1.1,0.6
		c0.3,0.2,0.6,0.5,0.8,0.8c0.2,0.3,0.4,0.6,0.5,0.9s0.2,0.6,0.2,0.9C32.1,67.3,32.1,67.5,32,67.7 M13,51c0.2-11.5,4-22.4,10.9-31.2
		c1.4,1.2,2.8,2.5,4.1,3.9c1.7,1.8,3.3,3.8,4.7,5.8C24.9,30.6,19,37,19,44.7l0.1,9.7H13C13,52.7,13,51.4,13,51 M11.1,59.3
		c-4-5.4-6.5-11.9-6.8-19c0-0.2,0-0.5,0-0.7s0-0.4,0-0.6v-0.1c0-9.8,4.2-18.7,10.9-24.9c0,0,0.1,0,0.1,0.1c2.5,1.4,4.9,2.9,7.1,4.7
		c-6.8,8.7-11,19.9-11.3,32.2C11.1,51.8,11.1,56.1,11.1,59.3 M35.4,4.7C36.6,4.6,39,4.5,39,4.5c-0.1,0.1-0.2,0.1-0.3,0.2
		c-0.5,0.3-1,0.6-1.6,0.9c-5.1,3.1-9.7,7-13.5,11.6c-2.1-1.7-4.4-3.2-6.8-4.6c0,0-0.1,0-0.1-0.1C21.9,8.2,28.3,5.4,35.4,4.7
		 M50.9,15.9c0.7,0.8,1.5,1.6,2.2,2.5c-3.7,3.2-7,6.9-9.8,11c-0.2,0-0.5,0-0.7,0h-5.7h-1.7c-0.1,0-0.2,0-0.3,0
		c-2.7-4.1-6-7.8-9.8-11c1-1.2,2-2.3,3.1-3.4c3.3-3.3,7-6.1,10.9-8.4C43.4,9,47.3,12.2,50.9,15.9 M39.1,4.5c1.2,0,2.4,0.1,3.6,0.2
		c7.1,0.7,13.6,3.5,18.8,7.8c0,0-0.1,0-0.1,0.1c-2.4,1.4-4.7,2.9-6.9,4.6C50.6,12.6,46,8.6,40.9,5.5c-0.5-0.3-1-0.6-1.6-0.9
		C39.3,4.6,39.2,4.5,39.1,4.5L39.1,4.5z M66.8,11.9c-0.5-0.5-0.9-0.9-1.4-1.4C61,6.6,55.7,3.6,49.9,2c-1.1-0.3-2.3-0.6-3.4-0.8
		c-2.4-0.4-4.8-0.7-7.3-0.7s-5,0.2-7.4,0.7l0,0c-1.2,0.2-2.3,0.5-3.4,0.8c-5.8,1.7-11.1,4.6-15.5,8.6c-0.5,0.4-1,0.9-1.4,1.4
		C4.3,18.9,0,28.4,0,39c0,11.6,5.2,22,13.5,29.1c0.9,0.7,1.7,1.4,2.7,2.1c5.9,4.2,13,6.9,20.8,7.3c0.7,0,1.3,0.1,2,0.1h0.2
		c0.6,0,1.3,0,1.9,0c7.7-0.4,14.7-2.9,20.6-7c0.9-0.6,1.8-1.3,2.6-2c8.5-7.1,13.9-17.6,13.9-29.4C78.2,28.4,73.8,18.9,66.8,11.9"/>
	<path class="st1" d="M29.3,66.1c-0.7,0-0.7,1,0,1C29.9,67.1,29.9,66.1,29.3,66.1"/>
</g>
</svg>
