<?xml version="1.0" encoding="utf-8"?>
<!-- Generator: Adobe Illustrator 23.0.1, SVG Export Plug-In . SVG Version: 6.00 Build 0)  -->
<svg version="1.1" id="Layer_1" xmlns="http://www.w3.org/2000/svg" xmlns:xlink="http://www.w3.org/1999/xlink" x="0px" y="0px"
	 viewBox="0 0 1000 1000" style="enable-background:new 0 0 1000 1000;" xml:space="preserve">
<style type="text/css">
	.st0{fill:#706259;}
	.st1{fill:#F08F21;}
	.st2{fill:#EDB51D;}
	.st3{fill:#CACB2B;}
	.st4{fill:#08A5A9;}
</style>
<g>
	<path class="st0" d="M314.6,466.6c3.4-1.5,7.1-1.5,10.5-0.3l3.1-4c-7.4,0-9.8-3.7-8.3-6.1s4.6-0.6,7.1,0.9l3.1-3.7
		c-3.1-2.8-8-2.5-11.1,0.6c-0.3,0.3-0.6,0.6-0.6,0.9c-1.8,2.2-1.5,5.2,0.3,7.1c-2.2,0.6-4,1.5-5.5,3.1L314.6,466.6z"/>
	<path class="st0" d="M440,450.6v42.1c3.7,0,5.8-3.1,5.8-8.3v-33.8H440z"/>
	<path class="st0" d="M404.9,509.3v41.8c3.7,0,5.8-3.1,5.8-8.3V509h-5.8V509.3z"/>
	<path class="st0" d="M348.1,483.2c1.2,3.1,4,4.9,7.1,4.6h15.1v-4.6c1.2,3.1,4,4.9,7.1,4.6h3.4c1.8,0.3,3.7-0.3,5.2-1.5
		c1.5-1.5,2.5-3.7,3.1-5.5c-0.6,4.9,8.6,6.8,13.8,7.1c4.9,0.6,5.2-2.8,5.2-4.6c1.2,3.1,4,4.9,7.1,4.6h14.8v-37.2H424v32.6h-9.5
		c-3.4,0.3-6.1-2.2-6.5-5.5c0-0.3,0-0.9,0-1.2c0-7.7-1.5-14.4-8.6-14.4c-11.1,0-12.6,12.3-16.3,18.4c-0.9,1.8-2.8,3.1-4.6,2.8h-1.8
		c-3.4,0.3-6.1-2.2-6.5-5.2c0-0.3,0-0.9,0-1.2v-26.1h-5.8v32.6h-9.8c-3.4,0.3-6.1-2.2-6.5-5.5c0-0.3,0-0.9,0-1.2v-25.8h-5.8v32.6
		h-29.8c-8.6,0-7.4-7.1-3.1-12l-1.5-1.5c-6.5,5.5-10.1,12.9-4.9,16.9c1.5,1.2,3.7,1.5,5.5,1.2h39.7V483.2z M401.9,472.7v9.8
		c-4.3-0.3-8.6-2.2-12-5.2c0.6-2.2,1.2-3.7,1.8-5.8c1.2-4,3.1-7.7,6.5-6.8C401,465.3,401.9,468.7,401.9,472.7"/>
	<path class="st0" d="M169.8,450.6v42.1c3.7,0,5.8-3.1,5.8-8.3v-33.8H169.8z"/>
	<path class="st0" d="M523.6,541.6h-3.7c-8.9,0-7.7-8.6-2.8-12.3c4.3-3.4,6.8,2.2,6.8,9.2L523.6,541.6z M568.8,530.8l2.8-4.3
		c8.3,0.9,6.8,7.4,3.1,11.7C574,535.1,571.9,532.4,568.8,530.8 M615.2,509.3v32.3h-9.8c-3.4,0.3-6.1-2.2-6.5-5.5c0-0.3,0-0.9,0-1.2
		V509h-5.8v32.3h-16c3.7-3.4,8.3-11.7,4.6-16s-9.2-3.7-13.2-4l-6.1,9.2c4.6,1.8,8.3,5.8,9.5,11.1h-20c-3.4,0.3-6.1-2.2-6.5-5.5
		c0-0.3,0-0.9,0-1.2V509h-5.8v32.3h-9.5v-2.5c0-9.8-6.5-17.8-15.1-11.4c-6.1,4.6-9.8,13.2-4.6,17.2c1.5,1.2,3.7,1.5,5.5,1.2h7.1
		c-1.2,7.7-3.1,15.1-13.8,20l0.6,1.8c8.9-2.8,17.5-6.5,19.7-21.8h16.3v-4.6c1.2,3.1,4,4.9,7.1,4.6h14.8c2.2,0.3,4.3-0.3,5.8-1.5
		c1.5,1.2,3.7,1.8,5.8,1.5h19.7v-5.5c0,1.5,0.9,3.4,2.2,4.3c1.5,1.2,3.7,1.5,5.5,1.2h14.4v-36.6H615.2z"/>
	<path class="st0" d="M434.8,541.6h-3.7c-8.9,0-7.7-8.6-2.8-12.3c4.3-3.4,6.8,2.2,6.8,9.2L434.8,541.6z M441.2,539.1
		c0-9.8-6.5-17.8-15.1-11.4c-6.1,4.6-9.8,12.9-4.6,17.2c1.5,1.2,3.7,1.5,5.5,1.2h7.1c-1.2,7.7-3.1,15.1-13.8,20l0.6,1.8
		c8.9-2.8,17.5-6.8,19.7-21.8C440.9,544,441.2,541.6,441.2,539.1"/>
	<path class="st0" d="M137.8,487.8v-4.6c1.2,3.1,4,4.9,7.1,4.6h15.1v-37.2h-5.8v32.6h-9.8c-3.4,0.3-6.1-2.2-6.5-5.5
		c0-0.3,0-0.9,0-1.2v-25.8H132v32.6h-10.1v-2.5c0-9.8-6.5-17.8-15.1-11.4c-6.1,4.6-9.8,13.2-4.6,16.9c1.8,1.2,3.7,1.8,5.5,1.5H137.8
		z M115.4,483.2h-3.7c-8.9,0-7.7-8.6-2.8-12.3c4.3-3.4,6.8,2.2,6.8,9.2L115.4,483.2z"/>
	<path class="st0" d="M553.7,482.6c-4.6-0.3-8.6-1.8-12-5.2c0.6-2.2,1.2-3.7,1.8-5.8c1.2-4,3.1-7.7,6.5-6.8c2.5,0.6,3.7,4,3.7,8
		L553.7,482.6L553.7,482.6z M509.8,472.1l2.8-4.3c8.3,0.6,6.8,7.4,3.1,11.7C515,476.4,512.8,473.6,509.8,472.1 M486.7,482.9H483
		c-8.9,0-7.7-8.6-2.8-12.3c4.3-3.4,6.8,2.2,6.8,9.2L486.7,482.9z M551.3,462c-11.1,0-12.6,12.3-16.3,18.4c-0.9,1.8-2.8,3.1-4.6,2.8
		h-12c3.7-3.4,8.3-11.7,4.6-16c-3.7-4.3-9.2-3.7-13.2-4l-6.1,9.2c4.6,1.8,8.3,5.8,9.5,10.8h-20v-2.5c0-9.8-6.5-17.8-15.1-11.4
		c-6.1,4.6-9.8,13.2-4.6,17.2c1.5,0.9,3.7,1.5,5.5,1.2h29.5c2.2,0.3,4.3-0.3,5.8-1.5c1.5,1.2,3.7,1.8,5.8,1.5h12
		c1.8,0.3,3.7-0.3,5.2-1.5c1.5-1.5,2.5-3.7,3.1-5.5c-0.6,4.9,8.6,6.8,13.8,7.1c4.9,0.6,4.9-2.8,4.9-4.6v-6.8
		C559.6,469,558,462,551.3,462"/>
	<path class="st0" d="M266.3,483.2c-7.4,0-10.1-5.2-10.1-10.8c-0.3-6.1,5.8-8.3,15.4-5.5l0.6-1.8c-3.4-1.5-6.8-2.5-10.5-2.8
		c-8.3,0-12.3,4-12.3,10.8c-0.3,4,1.5,7.7,4.6,9.8h-12.9c-3.4,0.3-6.1-2.5-6.1-5.5c0-0.3,0-0.6,0-0.9v-5.8h-6.1v12.6h-13.2
		c-3.4,0.3-6.1-2.2-6.5-5.5c0-0.3,0-0.9,0-1.2v-13.8H203v20.6h-10.8c-3.1,0-2.8-1.8-1.5-3.4l-1.5-0.9c-3.7,4-3.1,9.2,3.7,9.2h16
		v-4.9c1.2,3.1,4,4.9,7.1,4.6h18.4v-4.6c1.2,3.1,4,4.9,7.1,4.6h31.4v-4.6L266.3,483.2z"/>
	<path class="st0" d="M610,473.3c-3.4-5.8-7.4-10.1-15.1-10.1l-0.3,2.2c12,2.2,6.1,9.5,16.3,17.8h-32.6v-32.6h-5.8v28.9
		c0,5.2,2.5,8.3,5.8,8.3h44v-4.6C616.7,481.9,612.4,478.6,610,473.3"/>
	<path class="st0" d="M278.6,541.6v-2.5c0-9.8-6.1-17.8-15.1-11.4c-6.1,4.6-9.8,12.9-4.6,17.2c1.5,1.2,3.7,1.5,5.5,1.2h31v-4.6
		c1.2,3.1,4,4.9,7.1,4.6H318v-4.6c1.2,3.1,4,4.9,7.1,4.6h19.4c4.6,0,5.2-2.8,5.2-4.6c0.9,3.1,4,4.9,7.1,4.6h15.7v-4.6
		c0.9,3.1,4,4.9,7.1,4.6h14.8v-36.9h-5.8v32.3h-9.5c-3.4,0.3-6.1-2.2-6.5-5.5c0-0.3,0-0.9,0-1.2V529h-6.1v12.6h-10.5
		c-3.4,0-6.5-2.8-6.5-6.5c-0.6-4.6-2.8-11.7-9.2-11.7c-3.7,0-9.2,2.5-8,8.6c1.2,4,4,7.4,8,9.5h-16c-3.4,0.3-6.1-2.2-6.5-5.5
		c0-0.3,0-0.9,0-1.2V529h-5.8v12.6h-10.1c-3.4,0.3-6.1-2.2-6.5-5.5c0-0.3,0-0.9,0-1.2V529h-5.8v12.6L278.6,541.6z M337.3,529.3
		c6.1-3.7,8,8.6,8,12.3C337.3,537.3,333.9,531.4,337.3,529.3 M272.1,541.6h-3.7c-8.6,0-7.7-8.6-2.8-12.3c4.3-3.4,6.8,2.2,6.8,9.2
		L272.1,541.6z"/>
	<rect x="227.6" y="493.3" class="st0" width="5.8" height="5.5"/>
	<rect x="484.3" y="454.6" class="st0" width="5.8" height="5.2"/>
	<rect x="475.3" y="454.6" class="st0" width="5.8" height="5.2"/>
	<rect x="270" y="513.3" class="st0" width="5.8" height="5.2"/>
	<rect x="312.1" y="518.5" class="st0" width="5.8" height="5.5"/>
	<rect x="261.1" y="513.3" class="st0" width="5.8" height="5.2"/>
	<rect x="341.3" y="513.3" class="st0" width="5.8" height="5.2"/>
	<rect x="332.4" y="513.3" class="st0" width="5.8" height="5.2"/>
	<rect x="370.8" y="518.5" class="st0" width="5.8" height="5.5"/>
	<rect x="361.9" y="518.5" class="st0" width="5.8" height="5.5"/>
	<rect x="294.3" y="552" class="st0" width="5.8" height="5.2"/>
	<rect x="285.4" y="552" class="st0" width="5.8" height="5.2"/>
	<rect x="600.8" y="493.3" class="st0" width="5.8" height="5.5"/>
	<path class="st0" d="M492.6,541v-9.8c0-4-1.2-7.4-3.7-8.3c-3.4-0.9-5.2,2.8-6.5,6.8c-0.6,1.8-1.5,4.9-2.2,7.1
		C484.3,537.9,488.6,539.1,492.6,541 M490.1,520.4c6.8,0,8.6,7.1,8.6,14.4v6.8c0,2.2-0.6,6.5-4.9,4.6c-5.2-2.2-12.9-6.1-16-4
		c-2.2,1.5-1.8,3.7-1.8,8.6v11.4c0,5.2-2.5,8.3-5.8,8.3v-23.1c-0.3-3.7,1.2-7.4,4.3-9.5l0.3-0.3C477.5,531.1,480,520.4,490.1,520.4"
		/>
	<polygon class="st0" points="100.3,588 105.5,588 105.5,602.1 105.5,602.1 116,588 120.9,588 109.8,602.4 122.1,619.7 116.3,619.7 
		105.5,604.3 105.5,604.3 105.5,619.7 100.3,619.7 	"/>
	<path class="st0" d="M126.1,619.7h4.6v-21.8h-4.6V619.7z M125.8,592.6h4.9V588h-4.9V592.6z"/>
	<path class="st0" d="M138.1,597.8h4.6v5.2l0,0c1.2-3.4,4.3-5.5,7.7-5.5c3.1,0,5.5,2.8,5.5,5.8c0,0.3,0,0.3,0,0.6v15.7h-4.6v-13.5
		c0-2.8-0.3-5.2-2.8-5.2c-4.6,0-5.8,7.1-5.8,9.8v8.9h-4.6V597.8z"/>
	<path class="st0" d="M180.2,619c0,6.1-1.8,11.1-10.8,11.1c-2.2,0-4-0.3-6.1-0.9v-4.6c2.2,1.5,4.6,2.5,7.1,2.8
		c4.9,0,5.5-3.4,5.5-8.3v-2.5l0,0c-1.2,2.2-3.4,3.4-5.5,3.1c-5.8,0-8.3-4.6-8.3-11.1s1.8-11.1,8.3-11.1c2.5,0,4.9,1.5,5.5,4l0,0
		v-3.7h4.6L180.2,619z M171,616.9c4,0,4.3-4.6,4.3-8.3s-0.6-8.6-4.3-8.6s-4.3,4.6-4.3,8.3S167.3,616.9,171,616.9"/>
	<path class="st0" d="M207.9,588h5.2l10.5,31.7h-5.2l-2.8-9.5h-11.1l-2.8,9.5h-4.6L207.9,588z M205.8,607.4h8.9l-4.3-14.8l0,0
		L205.8,607.4z"/>
	<path class="st0" d="M231.9,600.9L231.9,600.9c1.2-2.2,3.7-3.7,6.1-3.4c5.8,0,8.3,4.9,8.3,11.4c0,8-4,11.4-9.8,11.4
		c-8.6,0-9.2-5.8-9.2-11.4V588h4.6V600.9z M236.5,618.4c3.7,0,4.6-4.9,4.6-9.5c0-3.7-0.9-8.9-4.6-8.9c-3.7,0-4.6,4.6-4.6,8.9
		C232.2,614.4,232.8,618.1,236.5,618.4"/>
	<path class="st0" d="M264.2,616L264.2,616c-0.9,2.5-3.1,4-5.5,4c-6.1,0-8.3-5.2-8.3-11.4s2.5-11.4,8.3-11.4c2.5,0,4.6,1.2,5.5,3.4
		l0,0v-12.9h4.6v32h-4.6V616z M259.9,617.2c3.7,0,4.3-4.9,4.3-8.6c0-3.7-0.3-8.9-4.3-8.9c-4,0-4.3,4.9-4.3,8.9
		C255.5,612.6,256.2,617.2,259.9,617.2"/>
	<path class="st0" d="M289.4,614.4L289.4,614.4c-1.2,3.4-4.3,5.5-7.7,5.8c-3.1,0-5.5-2.8-5.5-5.8c0-0.3,0-0.3,0-0.6v-16h4.6v13.5
		c0,2.8,0.3,5.2,2.8,5.2c4.6,0,5.8-7.1,5.8-9.8v-8.9h4.6v21.8h-4.6V614.4z"/>
	<rect x="301.4" y="588" class="st0" width="4.6" height="31.7"/>
	<rect x="313.3" y="588" class="st0" width="4.6" height="31.7"/>
	<path class="st0" d="M336.4,616.6L336.4,616.6c-1.2,2.2-3.7,3.7-6.1,3.7c-3.1,0.3-5.8-1.8-6.1-5.2v-0.3c0-6.8,9.2-7.1,12.3-7.1
		v-1.8c0-2.5,0-6.5-3.1-6.5c-3.1,0-3.4,2.2-3.4,4.9H325c0.3-3.4,1.5-6.8,8.3-6.8c6.8,0,7.7,4,7.7,8.3v13.8h-4.6V616.6z M336.4,609.5
		c-1.8,0-7.1,0.6-7.1,4.6c0,1.8,1.2,3.4,2.8,3.4c2.8-0.3,4.6-2.5,4.6-5.2v-2.8H336.4z"/>
	<path class="st0" d="M347.8,588h4.6v15.1l0,0c1.2-3.4,4.3-5.5,7.7-5.5c3.1,0,5.5,2.8,5.5,5.8c0,0.3,0,0.3,0,0.6v15.7H361v-13.5
		c0-2.8-0.3-5.2-2.8-5.2c-4.6,0-5.8,7.1-5.8,9.8v8.9h-4.6V588z"/>
	<path class="st0" d="M407.4,608.3c0,5.8-0.9,11.7-10.8,11.7s-10.8-5.8-10.8-11.7V588h4.9v20.3c0,4.9,0.3,8.9,5.5,8.9s5.5-4,5.5-8.9
		V588h4.9v20.3H407.4z"/>
	<path class="st0" d="M414.5,597.8h4.6v5.2l0,0c1.2-3.4,4.3-5.5,7.7-5.5c3.1,0,5.5,2.8,5.5,5.8c0,0.3,0,0.3,0,0.6v15.7h-4.6v-13.5
		c0-2.8-0.3-5.2-2.8-5.2c-4.6,0-5.8,7.1-5.8,9.8v8.9h-4.6V597.8z"/>
	<path class="st0" d="M439.7,619.7h4.6v-21.8h-4.6V619.7z M439.4,592.6h4.9V588h-4.9V592.6z"/>
	<polygon class="st0" points="448.3,597.8 453.2,597.8 458.7,613.5 459.1,613.5 464.3,597.8 468.3,597.8 460.6,619.7 456.6,619.7 	
		"/>
	<path class="st0" d="M487.9,619c-2.2,0.9-4.3,1.2-6.5,1.2c-6.1,0-10.8-3.7-10.8-12.3c0-6.1,2.5-10.5,9.2-10.5
		c6.8,0,8.3,4.6,8.3,8.9h-12.9c0,4.3,1.8,11.4,8.6,11.4c1.5,0,2.8-0.3,4.3-0.9L487.9,619z M484,604.3c0-1.8-0.6-4.9-4-4.9
		c-3.4,0-4.3,3.7-4.3,4.9H484z"/>
	<path class="st0" d="M493.8,597.8h4.6v5.5l0,0c1.5-2.8,3.1-5.8,7.1-6.1v4.9c-4.3,0.3-7.1,1.5-7.1,7.4v10.1h-4.6V597.8z"/>
	<path class="st0" d="M521.1,602.1c-1.5-1.2-3.4-2.2-5.5-2.2c-1.5,0-3.1,0.6-3.1,2.5c0,4,9.8,4.3,9.8,11.4c0,4.6-3.7,6.8-8.3,6.8
		c-1.8,0-4-0.3-5.8-0.9v-4.3c1.8,1.2,4,2.2,6.1,2.5c2.8,0,3.7-1.2,3.7-2.8c0-3.7-9.8-4.6-9.8-10.8c0-3.4,2.2-6.1,7.7-6.1
		c1.8,0,3.4,0.3,5.2,0.9V602.1z"/>
	<path class="st0" d="M527.6,619.7h4.6v-21.8h-4.6V619.7z M527.6,592.6h4.9V588h-4.9V592.6z"/>
	<path class="st0" d="M551.3,620c-0.9,0.3-2.2,0.3-3.1,0.3c-4.3,0-6.8-1.2-6.8-5.5v-14.4h-3.4v-2.5h3.4v-5.2l4.6-2.8v8h6.1v2.5H546
		v12.6c0,3.1,0.3,4.9,3.4,4.9c0.6,0,1.5,0,2.2-0.3L551.3,620z"/>
	<polygon class="st0" points="561.1,620 552.8,597.8 557.7,597.8 563.3,613.5 563.6,613.5 568.5,597.8 573.1,597.8 561.7,629.5 
		558,629.5 	"/>
	<path class="st0" d="M583.9,608.9c0-7.4,3.1-11.4,9.5-11.4s9.5,4,9.5,11.4s-3.4,11.4-9.5,11.4S583.9,616.3,583.9,608.9
		 M593.4,618.1c4.3,0,4.6-5.5,4.6-9.5s-0.6-9.5-4.6-9.5s-4.6,5.5-4.6,9.5S589.4,618.1,593.4,618.1"/>
	<path class="st0" d="M610.3,600.3h-3.7v-2.5h3.7v-2.2c0-4,0.9-8.3,8.3-8.3c1.5,0,3.1,0.3,4.6,0.6v3.1c-1.2-0.6-2.8-0.9-4-0.9
		c-3.7,0-4.3,2.8-4.3,4.9v2.5h6.1v2.5h-6.1v19.7h-4.6V600.3z"/>
	<path class="st0" d="M186.7,647c-2.5-1.2-5.2-2.2-7.7-2.2c-2.8,0-4.6,1.5-4.6,4c0,6.8,15.1,6.5,15.1,16.3c0,6.8-5.2,9.2-11.4,9.2
		c-2.8,0-5.5-0.3-8-1.2v-4.9c2.8,1.5,5.8,2.5,8.9,2.8c3.4,0,5.8-1.2,5.8-4.6c0-7.4-15.1-6.8-15.1-16.6c0-5.2,3.7-8,10.5-8
		c2.5,0,4.9,0.3,7.4,0.9L186.7,647z"/>
	<path class="st0" d="M208.8,673.5c-1.8,0.6-4,0.9-5.8,0.9c-6.8,0-11.1-4-11.1-12.3c0-6.5,3.1-10.5,9.2-10.5c6.1,0,7.7,3.1,7.7,7.7
		h-4.9c0-2.5-0.3-5.5-3.1-5.5c-2.8,0-4,3.1-4,7.1c0,5.2,2.2,11.4,7.7,11.4c1.2,0,2.8-0.3,4-0.9L208.8,673.5z"/>
	<path class="st0" d="M214.1,674.1h4.6v-21.8h-4.6V674.1z M213.7,647h4.9v-4.6h-4.9V647z"/>
	<path class="st0" d="M241.7,673.5c-2.2,0.9-4.3,1.2-6.5,1.2c-6.1,0-10.8-3.7-10.8-12.3c0-6.1,2.5-10.5,9.2-10.5s8.3,4.6,8.3,8.9
		h-13.2c0,4.3,1.8,11.4,8.6,11.4c1.5,0,2.8-0.3,4.3-0.9V673.5z M237.4,658.7c0-1.8-0.6-4.9-4-4.9s-4.3,3.7-4.3,4.9H237.4z"/>
	<path class="st0" d="M247.2,652.2h4.6v5.2l0,0c1.2-3.4,4.3-5.5,7.7-5.5c3.1,0,5.5,2.8,5.5,5.8c0,0.3,0,0.3,0,0.6v16h-4.6v-13.5
		c0-2.8-0.3-5.2-2.8-5.2c-4.6,0-5.8,7.1-5.8,9.8v8.9h-4.6V652.2z"/>
	<path class="st0" d="M287.5,673.5c-1.8,0.6-3.7,0.9-5.8,0.9c-6.8,0-11.1-4-11.1-12.3c0-6.5,3.1-10.5,9.2-10.5
		c6.1,0,7.7,3.1,7.7,7.7h-4.9c0-2.5-0.3-5.5-3.1-5.5c-2.8,0-4,3.1-4,7.1c0,5.2,2.2,11.4,8,11.4c1.2,0,2.8-0.3,4-0.9V673.5z"/>
	<path class="st0" d="M307.8,673.5c-2.2,0.9-4.3,1.2-6.5,1.2c-6.1,0-10.8-3.7-10.8-12.3c0-6.1,2.5-10.5,9.2-10.5s8.3,4.6,8.3,8.9
		h-12.9c0,4.3,1.8,11.4,8.6,11.4c1.5,0,2.8-0.3,4-0.9V673.5z M303.8,658.7c0-1.8-0.6-4.9-4-4.9c-3.4,0-4.3,3.7-4.3,4.9H303.8z"/>
	<path class="st0" d="M337.6,671L337.6,671c-1.2,2.2-3.7,3.4-6.1,3.4c-3.1,0.3-5.8-2.2-5.8-5.2c0,0,0,0,0-0.3
		c0-6.8,9.2-7.1,12.3-7.1v-1.8c0-2.5,0-6.5-3.1-6.5c-3.1,0-3.4,2.2-3.7,4.9h-4.9c0.3-3.4,1.5-6.8,8.3-6.8s7.7,4,7.7,8.3v14.1h-4.6
		V671z M337.6,663.9c-1.8,0-7.1,0.6-7.1,4.6c0,2.2,1.2,3.4,2.8,3.4c2.8-0.3,4.6-2.5,4.3-5.2V663.9z"/>
	<path class="st0" d="M349.3,652.2h4.6v5.2l0,0c1.2-3.4,4.3-5.5,7.7-5.5c3.1,0,5.5,2.8,5.5,5.8c0,0.3,0,0.3,0,0.6v16h-4.6v-13.5
		c0-2.8-0.3-5.2-2.8-5.2c-4.6,0-5.8,7.1-5.8,9.8v8.9h-4.6V652.2z"/>
	<path class="st0" d="M386.8,670.7L386.8,670.7c-0.9,2.5-3.1,4-5.5,4c-6.1,0-8.3-5.2-8.3-11.4c0-6.1,2.5-11.4,8.3-11.4
		c2.5,0,4.6,1.2,5.5,3.7l0,0v-12.9h4.6v31.7h-4.6V670.7z M382.2,671.6c3.7,0,4.3-4.9,4.3-8.6s-0.3-8.6-4.3-8.6c-4,0-4.3,4.9-4.3,8.6
		S378.5,671.6,382.2,671.6"/>
	<polygon class="st0" points="415.7,645.5 408,645.5 408,642.4 428.3,642.4 428.3,645.5 420.6,645.5 420.6,674.1 415.7,674.1 	"/>
	<path class="st0" d="M446.1,673.5c-2.2,0.9-4.3,1.2-6.5,1.2c-6.1,0-10.8-3.7-10.8-12.3c0-6.1,2.5-10.5,9.2-10.5s8.3,4.6,8.3,8.9
		h-12.9c0,4.3,1.8,11.4,8.6,11.4c1.5,0,2.8-0.3,4.3-0.9L446.1,673.5z M441.8,658.7c0-1.8-0.6-4.9-4-4.9c-3.4,0-4.3,3.7-4.3,4.9
		H441.8z"/>
	<path class="st0" d="M467,673.5c-1.8,0.6-3.7,0.9-5.8,0.9c-6.8,0-11.1-4-11.1-12.3c0-6.5,3.1-10.5,9.2-10.5c6.1,0,8,3.1,8,7.7h-4.9
		c0-2.5-0.3-5.5-3.1-5.5c-2.8,0-4,3.1-4,7.1c0,5.2,2.2,11.4,8,11.4c1.2,0,2.8-0.3,4-0.9L467,673.5z"/>
	<path class="st0" d="M471.7,642.4h4.6v15.1l0,0c1.2-3.4,4.3-5.5,7.7-5.5c3.1,0,5.5,2.8,5.5,5.8c0,0.3,0,0.3,0,0.6v16h-4.6v-13.5
		c0-2.8-0.3-5.2-2.8-5.2c-4.6,0-5.8,7.1-5.8,9.8v8.9h-4.6V642.4z"/>
	<path class="st0" d="M496.9,652.2h4.6v5.2l0,0c1.2-3.4,4.3-5.5,7.7-5.5c3.1,0,5.5,2.8,5.5,5.8c0,0.3,0,0.3,0,0.6v16h-4.6v-13.5
		c0-2.8-0.3-5.2-2.8-5.2c-4.6,0-5.8,7.1-5.8,9.8v8.9h-4.6L496.9,652.2z"/>
	<path class="st0" d="M520.2,663.3c0-7.4,3.1-11.4,9.5-11.4s9.5,4,9.5,11.4s-3.4,11.4-9.5,11.4S520.2,670.7,520.2,663.3
		 M529.8,672.8c4.3,0,4.6-5.5,4.6-9.5c0-4-0.6-9.5-4.6-9.5s-4.6,5.5-4.6,9.5C525.1,667.3,525.8,672.8,529.8,672.8"/>
	<rect x="545.1" y="642.4" class="st0" width="4.6" height="31.7"/>
	<path class="st0" d="M555.9,663.3c0-7.4,3.1-11.4,9.5-11.4s9.5,4,9.5,11.4s-3.4,11.4-9.5,11.4C559.3,674.7,555.9,670.7,555.9,663.3
		 M565.4,672.8c4,0,4.6-5.5,4.6-9.5c0-4-0.6-9.5-4.6-9.5c-4,0-4.6,5.5-4.6,9.5C560.8,667.3,561.1,672.8,565.4,672.8"/>
	<path class="st0" d="M597.7,673.5c0,6.1-1.8,11.1-10.8,11.1c-2.2,0-4-0.3-6.1-0.9V679c2.2,1.5,4.6,2.5,7.1,2.8
		c4.9,0,5.5-3.4,5.5-8.3V671l0,0c-1.2,2.2-3.4,3.4-5.8,3.1c-5.8,0-8.3-4.6-8.3-11.1c0-6.5,1.8-11.1,8.3-11.1c2.5,0,4.9,1.5,5.8,4
		l0,0v-3.7h4.6v21.2H597.7z M588.5,671.6c4,0,4.3-4.6,4.3-8.3s-0.6-8.6-4.3-8.6s-4.3,4.6-4.3,8.3S584.8,671.6,588.5,671.6"/>
	<polygon class="st0" points="609.7,674.4 601.4,652.2 606.3,652.2 611.8,667.9 612.1,667.9 617.1,652.2 621.7,652.2 610.3,683.9 
		606.6,683.9 	"/>
	<path class="st1" d="M806.1,477.6c4.3-6.5,6.5-14.4,6.1-22.4c0-4.9-0.6-9.8-2.2-14.8c-4.9,4.3-7.7,10.5-7.7,16.9
		C802.7,464.4,804,471.2,806.1,477.6"/>
	<path class="st1" d="M859,425.1c1.5,8,2.2,16,2.2,24c0,29.8-5.8,51-14.8,66.4c1.5,0.3,3.1,0.3,4.6,0.3c41.8,0,50.7-38.7,50.7-55.6
		C901.7,432.8,874,425.7,859,425.1"/>
	<path class="st1" d="M816.9,455.5c0.3,9.8-2.8,19.4-8.9,27.1c1.5,4,3.7,7.7,5.8,11.4c8.3-9.5,12.3-23.1,12.3-40.6
		c0-7.1-1.2-14.1-3.4-20.6c-3.1,1.5-5.8,3.1-8.6,5.2C815.9,443.2,816.9,449.4,816.9,455.5"/>
	<path class="st1" d="M831.3,453.4c0,21.5-5.8,35.7-14.4,44.9c2.2,2.8,4.9,5.2,7.7,7.7c9.2-11.7,15.4-28.9,15.4-54.7
		c0-8-0.9-15.7-3.1-23.4c-3.1,0.9-6.1,1.8-8.9,2.8C830.1,437.7,831.6,445.4,831.3,453.4"/>
	<path class="st1" d="M846.4,451.2c0,27.7-6.8,46.1-16.6,58.7c2.8,1.8,5.8,3.1,8.9,4c8.9-14.4,14.8-35.4,14.8-64.9
		c0-8-0.9-16-2.5-24c-2.5,0.3-5.2,0.6-8.3,1.2C845.2,434.3,846.4,442.6,846.4,451.2"/>
	<path class="st2" d="M762.8,388.5c23.1,0,42.1,8.9,54.4,23.4c2.5-3.4,4.6-7.1,6.5-10.8c-11.1-13.8-28-23.1-51-23.1
		c-18.8,0.6-37.2,4-55,10.5c0.3,2.5,1.2,4.9,2.5,7.1C733.9,391,748.3,388.5,762.8,388.5"/>
	<path class="st2" d="M829.8,370.7c-1.5-20.9-12.6-55.3-51-55.3c-29.8,0-47.6,28-55.9,49.5c19.4-6.1,39.3-9.5,59.3-9.8
		C799.3,354.4,816.3,359.9,829.8,370.7"/>
	<path class="st2" d="M729.6,407.6c7.7-1.8,15.7-2.5,23.7-2.5c12.9,0,37.8,2.5,52.3,18.1c3.1-2.2,5.8-4.3,8.3-7.1
		c-11.1-13.8-29.2-22.4-51-22.4c-13.5,0-27.1,2.2-40.3,6.5C724.6,402.9,727.1,405.4,729.6,407.6"/>
	<path class="st2" d="M801.5,425.4c-13.5-13.8-36.3-16-48-16c-6.5,0-12.9,0.6-19.1,1.5c14.8,10.8,36,18.4,49.8,18.4
		C789.8,429.7,796,428.5,801.5,425.4"/>
	<path class="st2" d="M772.6,371.6c24,0,41.8,9.2,53.8,23.1c1.5-4.6,2.8-9.2,3.4-14.1c-10.5-10.8-25.8-18.1-47.6-18.1
		c-21.2,0.6-42.4,4.6-62.4,11.4c-0.6,2.5-1.2,5.2-1.8,7.7C735.4,375.3,753.9,371.9,772.6,371.6"/>
	<path class="st3" d="M672.1,429.7c0-17.5,11.1-30.1,26.4-39.3c-2.2-1.5-4.6-2.8-7.1-3.4c-14.4,9.2-24.3,21.8-24.3,37.8
		c0,14.4,5.2,32.9,14.8,50.7c1.5,0,3.1-0.3,4.6-0.9C677.3,458.9,672.1,442.3,672.1,429.7"/>
	<path class="st3" d="M684.4,434.6c0-15.1,9.8-25.8,23.1-33.2c-0.9-2.2-2.5-4.3-4-6.1c-14.4,8-24.9,19.1-24.9,34.7
		c0,12,4.9,27.4,13.5,42.4c1.5-1.2,2.8-2.2,4-3.7C688.7,456.4,684.7,444.1,684.4,434.6"/>
	<path class="st3" d="M681.3,384.8c-1.8-0.3-3.7-0.3-5.5-0.3c-17.5,0-55,14.4-55,41.2c0,28.6,31.7,46.1,52.3,49.5
		c-8.9-18.1-13.8-36.3-13.8-50.4C659.5,408.2,668.1,395,681.3,384.8"/>
	<path class="st3" d="M696.4,439.2c0-9.8,5.2-18.4,14.4-24.3c0-3.1-0.6-6.1-1.5-8.9c-11.7,6.5-19.7,15.7-19.7,28.3
		c0.6,10.5,4,20.6,9.5,29.8c1.2-1.8,2.2-4,3.1-5.8C698.8,452.4,696.7,446,696.4,439.2"/>
	<path class="st3" d="M701,439.2c0.3,4.9,1.5,9.5,3.7,13.8c3.7-10.5,5.8-21.5,6.5-32.6C704.7,424.8,701,431.8,701,439.2"/>
	<path class="st4" d="M767.7,496.7c-19.1-0.3-37.2-7.7-50.7-20.6c-2.5,0.9-4.6,1.8-6.8,3.1c14.4,16.9,35.7,30.7,61.2,30.7
		c10.8,0.3,21.2-1.8,30.7-6.5c-1.5-4.3-3.7-8.3-6.5-11.7C786.4,495.2,777.2,497,767.7,496.7"/>
	<path class="st4" d="M685.9,496.1c-8.9,8.9-14.4,18.8-14.4,28.9c0,38.7,60.3,60.6,83.6,60.6c27.7,0,40.6-17.5,46.1-36
		c-7.7,1.8-15.7,2.8-23.7,2.8C738.8,552,706.8,526.5,685.9,496.1"/>
	<path class="st4" d="M745.6,470c-8.3,0-16.3,1.5-24,4.3c12.6,11.4,29.2,17.8,46.1,17.8c8.3,0.3,16.6-1.2,24.3-4
		C777.2,473,754.2,470,745.6,470"/>
	<path class="st4" d="M771.1,515.1c-27.4,0-50.4-15.4-65.8-33.5c-1.8,0.9-3.4,1.8-5.2,3.1c16.9,23.1,43,42.4,74.1,42.4
		c10.5,0.3,20.9-1.8,30.4-5.8c0-4.3-0.6-8.6-1.5-12.6C792.9,513,782.1,515.5,771.1,515.1"/>
	<path class="st4" d="M774.1,533.6c-33.2,0-61.2-20.9-79.3-45.5c-1.2,0.9-2.5,2.2-3.7,3.1c19.7,28.9,49.8,53.2,86.4,53.2
		c8.6,0,17.2-1.2,25.5-3.7c0.9-4.3,1.2-8.6,1.5-12.9C795,531.7,784.6,533.6,774.1,533.6"/>
</g>
</svg>
