<?xml version="1.0" encoding="UTF-8"?>
<svg id="Layer_1" data-name="Layer 1" xmlns="http://www.w3.org/2000/svg" viewBox="0 0 1297.59 1253.59">
  <defs>
    <style>
      .cls-1 {
        fill: currentColor;
      }
    </style>
  </defs>
  <path class="cls-1" d="M986.08,923.45l-121.81-37.92c-71.56-22.28-149.54-.9-199.73,54.76l-85.43,94.75-28.06-124.45c-16.49-73.11-73.99-129.95-147.29-145.59l-124.77-26.61,93.75-86.53c55.07-50.83,75.55-129.06,52.44-200.35l-39.34-121.36,121.81,37.92c71.56,22.28,149.54.9,199.73-54.76l85.43-94.75,28.06,124.45c16.49,73.11,73.99,129.95,147.29,145.59l124.77,26.61-93.75,86.53c-55.07,50.83-75.55,129.06-52.44,200.35l39.34,121.36Z"/>
</svg>
